<svg width="48" height="54" viewBox="0 0 48 54" fill="none" xmlns="http://www.w3.org/2000/svg">
<path d="M24 27C31.7375 27 38 20.9612 38 13.5C38 6.03884 31.7375 0 24 0C16.2625 0 10 6.03884 10 13.5C10 20.9612 16.2625 27 24 27ZM33.6 30.8571H32.5625C29.9625 32.0625 27.075 32.7857 24 32.7857C20.925 32.7857 18.05 32.0625 15.4375 30.8571H14.4C6.45 30.8571 0 37.0768 0 44.7429V48.2143C0 51.4085 2.6875 54 6 54H42C45.3125 54 48 51.4085 48 48.2143V44.7429C48 37.0768 41.55 30.8571 33.6 30.8571Z" fill="#F3ECFF"/>
</svg>
