<svg width="174" height="194" viewBox="0 0 174 194" fill="none" xmlns="http://www.w3.org/2000/svg">
<g filter="url(#filter0_d)">
<path fill-rule="evenodd" clip-rule="evenodd" d="M106.372 31.5058C109.508 40.7102 110.412 55.8198 108.169 68.2464C111.844 68.3143 115.416 68.6814 118.834 69.3307C119.329 68.4449 120.024 67.2485 120.857 65.9439C122.542 63.3045 124.899 60.0485 127.387 58.1145C129.085 56.7944 131.254 55.9302 133.452 55.3527C135.665 54.7714 138.004 54.4559 140.119 54.2898C142.239 54.1233 144.164 54.1045 145.559 54.1269C146.257 54.1382 146.825 54.1598 147.22 54.1789C147.233 54.1795 147.245 54.1801 147.257 54.1807C147.85 52.589 149.383 51.4551 151.181 51.4551C153.493 51.4551 155.367 53.3291 155.367 55.6408C155.367 57.9525 153.493 59.8265 151.181 59.8265C149.415 59.8265 147.905 58.733 147.29 57.1863C147.227 57.1829 147.156 57.1792 147.076 57.1754C146.709 57.1577 146.173 57.1372 145.51 57.1265C144.183 57.1052 142.356 57.1234 140.354 57.2806C138.349 57.4381 136.198 57.733 134.214 58.2543C132.216 58.7794 130.48 59.5101 129.228 60.4831C127.177 62.0778 125.05 64.9508 123.385 67.5582C122.818 68.447 122.317 69.2848 121.904 69.9998C136.169 73.5193 147.312 82.1522 151.312 94.5395C158.466 116.695 135.441 153.61 105.586 163.251C87.9306 168.952 70.0291 166.144 56.8673 158.315L36.2232 161.755L45.0728 148.481C41.8897 144.738 39.4704 140.545 38.017 136.044C34.247 124.369 39.0124 109.858 48.7333 97.3305C40.3036 93.8903 31.9989 88.65 27.0849 83.9173C16.2803 73.5111 14.717 57.6042 23.5932 48.3882C31.2739 40.4133 44.2546 40.0616 54.6125 46.854C50.1973 30.9535 57.0733 14.857 70.6028 10.2477C84.7194 5.43842 100.734 14.956 106.372 31.5058Z" fill="#9056FC"/>
<path d="M101.074 35.6038C106.079 50.2966 105.378 81.7007 93.6471 85.6973C81.9161 89.6938 66.1944 64.6527 61.1888 49.9598C56.1832 35.267 59.0386 20.233 70.7696 16.2365C82.5006 12.2399 96.0683 20.911 101.074 35.6038Z" fill="white"/>
<path d="M57.2076 54.7759C66.3125 63.5451 77.5392 86.5214 70.5594 93.7685C63.5796 101.016 41.0365 89.789 31.9315 81.0198C22.8266 72.2507 21.1038 59.2669 28.0836 52.0199C35.0634 44.7728 48.1026 46.0068 57.2076 54.7759Z" fill="white"/>
<path d="M144.898 96.6395C151.258 116.334 130.79 149.15 104.251 157.72C77.7119 166.289 50.5465 153.229 44.1868 133.534C37.8271 113.84 58.7909 85.0658 85.3299 76.496C111.869 67.9261 138.539 76.9447 144.898 96.6395Z" fill="white"/>
<path d="M78.2306 48.4651C81.9668 59.2068 86.303 64.1827 87.7978 75.9709L94.3753 73.8276C94.3753 73.8276 90.9503 65.2056 87.7978 60.2533C84.6454 55.301 78.2306 48.4651 78.2306 48.4651Z" fill="#8645FF"/>
<path d="M49.5286 77.8906C54.6756 82.5609 58.7426 83.932 62.7084 89.8496L66.411 86.6908C66.411 86.6908 62.0045 83.0717 58.708 81.3534C55.4115 79.635 49.5286 77.8906 49.5286 77.8906Z" fill="#8645FF"/>
<circle cx="132.943" cy="93.6101" r="5.0826" fill="#9056FC"/>
<path d="M61.1892 91.5172C75.6897 116.106 81.2519 131.165 86.6022 160.282C86.6022 160.282 81.5196 160.581 78.5299 159.983C75.5401 159.385 72.2514 158.189 72.2514 158.189C72.2514 158.189 66.5743 142.35 61.7872 132.776C57.0001 123.202 47.2623 108.64 47.2623 108.64C50.85 100.866 54.0138 97.7957 61.1892 91.5172Z" fill="#9056FC" stroke="#9056FC"/>
<path d="M107.231 73.2796C95.6045 72.9271 88.2366 74.5121 78.8287 79.2592C95.2991 106.544 101.093 123.681 105.737 157.292C113.336 155.055 117.02 152.127 123.675 146.23C126.011 113.983 122.507 97.9673 107.231 73.2796Z" fill="#9056FC" stroke="#9056FC"/>
<path d="M110.19 68.2449C78.9905 70.766 65.6381 78.7262 47.7913 98.4987L50.3124 103.226C69.7198 83.4162 82.7614 76.7701 110.19 72.972V68.2449Z" fill="#9056FC"/>
</g>
<defs>
<filter id="filter0_d" x="0.445557" y="0" width="173.476" height="194" filterUnits="userSpaceOnUse" color-interpolation-filters="sRGB">
<feFlood flood-opacity="0" result="BackgroundImageFix"/>
<feColorMatrix in="SourceAlpha" type="matrix" values="0 0 0 0 0 0 0 0 0 0 0 0 0 0 0 0 0 0 127 0"/>
<feOffset dy="6"/>
<feGaussianBlur stdDeviation="7.5"/>
<feColorMatrix type="matrix" values="0 0 0 0 0.0941176 0 0 0 0 0.0627451 0 0 0 0 0.34902 0 0 0 0.5 0"/>
<feBlend mode="normal" in2="BackgroundImageFix" result="effect1_dropShadow"/>
<feBlend mode="normal" in="SourceGraphic" in2="effect1_dropShadow" result="shape"/>
</filter>
</defs>
</svg>
