<svg width="334" height="334" viewBox="0 0 334 334" fill="none" xmlns="http://www.w3.org/2000/svg">
<circle cx="167" cy="167" r="167" fill="#8645FF"/>
<g filter="url(#filter0_d)">
<path fill-rule="evenodd" clip-rule="evenodd" d="M197.152 69.6798C202.123 84.2717 203.556 108.225 200 127.925C205.967 128.035 211.762 128.643 217.3 129.72C218.077 128.332 219.152 126.486 220.433 124.479C223.102 120.298 226.811 115.185 230.7 112.161C233.336 110.112 236.719 108.759 240.179 107.85C243.658 106.936 247.344 106.439 250.683 106.176C254.028 105.913 257.068 105.884 259.27 105.919C260.344 105.936 261.221 105.969 261.842 105.999C262.673 103.282 265.2 101.306 268.189 101.306C271.854 101.306 274.825 104.276 274.825 107.941C274.825 111.606 271.854 114.577 268.189 114.577C265.245 114.577 262.749 112.66 261.881 110.005C261.824 110.003 261.764 110 261.7 109.996C261.114 109.968 260.261 109.936 259.206 109.919C257.093 109.885 254.184 109.914 250.996 110.164C247.802 110.415 244.37 110.885 241.196 111.719C238.002 112.558 235.196 113.733 233.155 115.319C229.848 117.89 226.447 122.493 223.805 126.631C222.876 128.085 222.06 129.453 221.393 130.612C244.192 136.131 262.02 149.861 268.397 169.609C279.739 204.734 243.235 263.258 195.905 278.542C167.916 287.58 139.536 283.128 118.67 270.717L85.9403 276.172L99.9703 255.127C94.9238 249.192 91.0882 242.545 88.784 235.409C82.8071 216.9 90.362 193.894 105.773 174.035C92.4088 168.581 79.243 160.273 71.4526 152.77C54.3235 136.272 51.8452 111.054 65.9171 96.4434C78.0937 83.8005 98.6727 83.2429 115.093 94.011C108.095 68.8033 118.995 43.2853 140.444 35.9781C162.824 28.3536 188.213 43.4424 197.152 69.6798Z" fill="white"/>
<path d="M188.752 76.1766C196.688 99.47 195.576 149.257 176.978 155.593C158.38 161.929 133.455 122.229 125.52 98.936C117.584 75.6426 122.111 51.8084 140.709 45.4724C159.306 39.1364 180.816 52.8831 188.752 76.1766Z" fill="#8645FF"/>
<path d="M119.208 106.571C133.642 120.473 151.441 156.899 140.375 168.388C129.31 179.877 93.5708 162.079 79.1362 148.177C64.7016 134.275 61.9703 113.691 73.0358 102.201C84.1013 90.7123 104.773 92.6685 119.208 106.571Z" fill="#8645FF"/>
<path d="M258.23 172.941C268.312 204.165 235.863 256.189 193.789 269.775C151.715 283.361 108.648 262.656 98.5653 231.433C88.4828 200.21 121.718 154.593 163.792 141.007C205.866 127.42 248.147 141.718 258.23 172.941Z" fill="#8645FF"/>
<path d="M152.537 96.5663C158.46 113.596 165.334 121.484 167.704 140.173L178.132 136.775C178.132 136.775 172.702 123.106 167.704 115.255C162.707 107.404 152.537 96.5663 152.537 96.5663Z" fill="white"/>
<path d="M107.034 143.216C115.194 150.62 121.642 152.794 127.929 162.176L133.799 157.168C133.799 157.168 126.813 151.43 121.587 148.706C116.361 145.982 107.034 143.216 107.034 143.216Z" fill="white"/>
<circle cx="239.276" cy="168.138" r="8.05775" fill="white"/>
<path d="M125.52 164.82C148.508 203.802 157.326 227.676 165.809 273.836C165.809 273.836 157.751 274.31 153.011 273.362C148.271 272.414 143.057 270.519 143.057 270.519C143.057 270.519 134.057 245.408 126.468 230.23C118.879 215.051 103.441 191.965 103.441 191.965C109.128 179.642 114.144 174.774 125.52 164.82Z" fill="white" stroke="white"/>
<path d="M198.514 135.907C180.081 135.348 168.4 137.861 153.485 145.386C179.597 188.642 188.782 215.81 196.144 269.097C208.192 265.551 214.033 260.908 224.583 251.559C228.286 200.437 222.731 175.046 198.514 135.907Z" fill="white" stroke="white"/>
<path d="M203.204 127.925C153.742 131.921 132.573 144.541 104.28 175.888L108.276 183.382C139.044 151.977 159.72 141.44 203.204 135.419V127.925Z" fill="white"/>
</g>
<path opacity="0.6" d="M159.086 61C168.666 63.9911 171.003 72.0846 171.003 72.0846" stroke="white" stroke-width="9" stroke-linecap="round"/>
<defs>
<filter id="filter0_d" x="41.792" y="25" width="248.033" height="279.316" filterUnits="userSpaceOnUse" color-interpolation-filters="sRGB">
<feFlood flood-opacity="0" result="BackgroundImageFix"/>
<feColorMatrix in="SourceAlpha" type="matrix" values="0 0 0 0 0 0 0 0 0 0 0 0 0 0 0 0 0 0 127 0"/>
<feOffset dy="6"/>
<feGaussianBlur stdDeviation="7.5"/>
<feColorMatrix type="matrix" values="0 0 0 0 0.0941176 0 0 0 0 0.0627451 0 0 0 0 0.34902 0 0 0 0.5 0"/>
<feBlend mode="normal" in2="BackgroundImageFix" result="effect1_dropShadow"/>
<feBlend mode="normal" in="SourceGraphic" in2="effect1_dropShadow" result="shape"/>
</filter>
</defs>
</svg>
