<svg width="512" height="512" viewBox="0 0 512 512" fill="none" xmlns="http://www.w3.org/2000/svg">
  <path d="M512 0H0V512H512V0Z" fill="#8645FF"/>
  <g filter="url(#filter0_d_35:2)">
    <path fill-rule="evenodd" clip-rule="evenodd" d="M300.742 115.487C308.117 137.136 310.244 172.673 304.968 201.901C314.061 202.069 322.887 203.015 331.306 204.695C332.444 202.666 333.994 200.014 335.831 197.137C339.786 190.941 345.239 183.439 350.913 179.026C354.728 176.062 359.653 174.082 364.743 172.746C369.855 171.403 375.282 170.669 380.212 170.282C385.15 169.894 389.638 169.85 392.89 169.902C394.395 169.926 395.639 169.971 396.545 170.013C397.559 165.654 401.467 162.407 406.134 162.407C411.572 162.407 415.979 166.815 415.979 172.252C415.979 177.69 411.572 182.097 406.134 182.097C401.525 182.097 397.656 178.93 396.585 174.653C396.568 174.652 396.553 174.652 396.538 174.651C395.662 174.609 394.389 174.561 392.816 174.535C389.667 174.484 385.33 174.527 380.575 174.901C375.813 175.275 370.68 175.976 365.92 177.227C361.138 178.483 356.881 180.256 353.757 182.684C348.757 186.572 343.66 193.484 339.736 199.63C338.308 201.867 337.057 203.967 336.047 205.728C370.186 213.81 396.919 234.254 406.441 263.743C423.269 315.854 369.111 402.681 298.892 425.355C257.367 438.764 215.262 432.159 184.305 413.746L135.748 421.839L156.563 390.617C149.075 381.812 143.385 371.951 139.967 361.363C131.1 333.903 142.308 299.773 165.172 270.308C145.344 262.217 125.812 249.891 114.254 238.76C88.8412 214.284 85.1643 176.871 106.041 155.194C124.107 136.436 154.638 135.609 179 151.584C168.616 114.187 184.789 76.328 216.611 65.4869C249.813 54.1752 287.48 76.5611 300.742 115.487Z" fill="white"/>
    <path d="M288.28 125.126C300.053 159.684 298.403 233.547 270.812 242.948C243.22 252.348 206.242 193.45 194.468 158.892C182.695 124.334 189.411 88.9728 217.002 79.5727C244.595 70.1727 276.507 90.5674 288.28 125.126Z" fill="#8645FF"/>
    <path d="M185.104 170.218C206.519 190.844 232.925 244.885 216.509 261.931C200.091 278.976 147.069 252.571 125.653 231.945C104.238 211.32 100.186 180.781 116.603 163.736C133.02 146.69 163.689 149.593 185.104 170.218Z" fill="#8645FF"/>
    <path d="M391.358 268.687C406.316 315.01 358.174 392.193 295.753 412.35C233.332 432.506 169.437 401.788 154.479 355.465C139.52 309.141 188.828 241.465 251.25 221.308C313.671 201.151 376.399 222.363 391.358 268.687Z" fill="#8645FF"/>
    <path d="M234.552 155.376C243.339 180.641 253.538 192.344 257.054 220.071L272.524 215.03C272.524 215.03 264.469 194.75 257.054 183.103C249.639 171.454 234.552 155.376 234.552 155.376Z" fill="white"/>
    <path d="M167.043 224.586C179.149 235.571 188.715 238.796 198.042 252.714L206.751 245.285C206.751 245.285 196.387 236.772 188.634 232.731C180.88 228.689 167.043 224.586 167.043 224.586Z" fill="white"/>
    <path d="M363.239 273.514C369.841 273.514 375.193 268.161 375.193 261.559C375.193 254.957 369.841 249.604 363.239 249.604C356.636 249.604 351.284 254.957 351.284 261.559C351.284 268.161 356.636 273.514 363.239 273.514Z" fill="white"/>
    <path d="M194.468 256.637C228.574 314.472 241.657 349.891 254.242 418.375C254.242 418.375 242.287 419.078 235.255 417.672C228.222 416.265 220.488 413.453 220.488 413.453C220.488 413.453 207.134 376.198 195.875 353.68C184.615 331.161 161.712 296.91 161.712 296.91C170.151 278.627 177.592 271.404 194.468 256.637Z" fill="white" stroke="white"/>
    <path d="M302.762 213.741C275.415 212.912 258.086 216.641 235.958 227.805C274.697 291.98 288.326 332.287 299.247 411.343C317.122 406.082 325.787 399.194 341.439 385.324C346.933 309.479 338.692 271.808 302.762 213.741Z" fill="white" stroke="white"/>
    <path d="M309.721 201.899C236.339 207.829 204.933 226.552 162.956 273.057L168.886 284.176C214.534 237.583 245.207 221.951 309.721 213.017V201.899Z" fill="white"/>
  </g>
  <path opacity="0.6" d="M244.268 102.609C258.48 107.047 261.948 119.055 261.948 119.055" stroke="white" stroke-width="9" stroke-linecap="round"/>
  <defs>
    <filter id="filter0_d_35:2" x="77.5034" y="53.5522" width="353.476" height="399.886" filterUnits="userSpaceOnUse" color-interpolation-filters="sRGB">
      <feFlood flood-opacity="0" result="BackgroundImageFix"/>
      <feColorMatrix in="SourceAlpha" type="matrix" values="0 0 0 0 0 0 0 0 0 0 0 0 0 0 0 0 0 0 127 0" result="hardAlpha"/>
      <feOffset dy="6"/>
      <feGaussianBlur stdDeviation="7.5"/>
      <feColorMatrix type="matrix" values="0 0 0 0 0.0941176 0 0 0 0 0.0627451 0 0 0 0 0.34902 0 0 0 0.5 0"/>
      <feBlend mode="normal" in2="BackgroundImageFix" result="effect1_dropShadow_35:2"/>
      <feBlend mode="normal" in="SourceGraphic" in2="effect1_dropShadow_35:2" result="shape"/>
    </filter>
  </defs>
</svg>
